<svg xmlns="http://www.w3.org/2000/svg" width="20" height="21" viewBox="0 0 20 21" fill="none">
  <g clip-path="url(#clip0_23_269)">
    <path d="M6.75781 14.4583C6.79253 14.4062 6.77951 14.3498 6.71875 14.2891C6.64062 14.2283 6.57986 14.2196 6.53646 14.263C6.50174 14.3151 6.51476 14.3715 6.57552 14.4323C6.65365 14.4931 6.71441 14.5017 6.75781 14.4583ZM6.39323 13.9245C6.34983 13.8637 6.29774 13.8464 6.23698 13.8724C6.1849 13.9071 6.1849 13.9592 6.23698 14.0286C6.29774 14.0981 6.34983 14.1198 6.39323 14.0938C6.44531 14.059 6.44531 14.0026 6.39323 13.9245ZM5.85938 13.4036C5.87674 13.3689 5.85503 13.3342 5.79427 13.2995C5.73351 13.2821 5.69878 13.2908 5.6901 13.3255C5.66406 13.3689 5.68142 13.4036 5.74219 13.4297C5.81163 13.447 5.85069 13.4384 5.85938 13.4036ZM6.13281 13.7031C6.15017 13.6944 6.15668 13.6749 6.15234 13.6445C6.148 13.6141 6.13281 13.5903 6.10677 13.5729C6.05469 13.5122 6.01128 13.4991 5.97656 13.5339C5.94184 13.5686 5.94618 13.6163 5.98958 13.6771C6.04167 13.7292 6.08941 13.7378 6.13281 13.7031ZM7.2526 14.6797C7.26997 14.6189 7.2309 14.5712 7.13542 14.5365C7.05729 14.5104 7.00087 14.5278 6.96615 14.5885C6.94878 14.6493 6.98785 14.697 7.08333 14.7318C7.16146 14.7578 7.21788 14.7405 7.2526 14.6797ZM7.79948 14.7188C7.79948 14.6493 7.7474 14.6146 7.64323 14.6146C7.55642 14.6146 7.51302 14.6493 7.51302 14.7188C7.51302 14.7882 7.56076 14.8229 7.65625 14.8229C7.75174 14.8229 7.79948 14.7882 7.79948 14.7188ZM8.30729 14.6276C8.28993 14.5668 8.23351 14.5451 8.13802 14.5625C8.04253 14.5799 8.00347 14.6189 8.02083 14.6797C8.03819 14.7491 8.09028 14.7752 8.17708 14.7578C8.26389 14.7405 8.30729 14.697 8.30729 14.6276ZM16.6667 10.5C16.6667 8.65972 16.0156 7.08854 14.7135 5.78646C13.4115 4.48438 11.8403 3.83333 10 3.83333C8.15972 3.83333 6.58854 4.48438 5.28646 5.78646C3.98438 7.08854 3.33333 8.65972 3.33333 10.5C3.33333 11.9497 3.75868 13.2539 4.60938 14.4128C5.46007 15.5716 6.55382 16.3767 7.89062 16.8281C8.04688 16.8542 8.16189 16.8325 8.23568 16.763C8.30946 16.6936 8.34635 16.6068 8.34635 16.5026C8.34635 16.0512 8.34201 15.6389 8.33333 15.2656C8.28125 15.2743 8.21398 15.2852 8.13151 15.2982C8.04904 15.3112 7.89497 15.3199 7.66927 15.3242C7.44358 15.3286 7.23524 15.3112 7.04427 15.2721C6.8533 15.2331 6.6645 15.1463 6.47786 15.0117C6.29123 14.8772 6.16319 14.697 6.09375 14.4714C5.8941 13.9592 5.6467 13.638 5.35156 13.5078C5.3342 13.4991 5.31467 13.4839 5.29297 13.4622L5.1888 13.3581L5.09766 13.2344L5.14974 13.1367L5.40365 13.0911C5.45573 13.0911 5.52083 13.0998 5.59896 13.1172C5.67708 13.1345 5.80729 13.2018 5.98958 13.319C6.17188 13.4362 6.3151 13.5903 6.41927 13.7812C6.55816 14.0243 6.72092 14.2066 6.90755 14.3281C7.09418 14.4497 7.28299 14.5104 7.47396 14.5104C7.66493 14.5104 7.82986 14.4952 7.96875 14.4648C8.10764 14.4345 8.23785 14.3932 8.35938 14.3411C8.42014 13.9332 8.56337 13.6337 8.78906 13.4427C8.36372 13.3906 7.99045 13.3103 7.66927 13.2018C7.34809 13.0933 7.03125 12.924 6.71875 12.694C6.40625 12.464 6.16536 12.1341 5.99609 11.7044C5.82682 11.2747 5.74219 10.7561 5.74219 10.1484C5.74219 9.46267 5.97222 8.86806 6.43229 8.36458C6.22396 7.82639 6.24566 7.23611 6.4974 6.59375C6.66233 6.54167 6.89887 6.57422 7.20703 6.69141C7.51519 6.80859 7.77778 6.93663 7.99479 7.07552L8.33333 7.28385C8.83681 7.13628 9.39236 7.0625 10 7.0625C10.6076 7.0625 11.1632 7.13628 11.6667 7.28385C11.7622 7.22309 11.8858 7.14497 12.0378 7.04948C12.1897 6.95399 12.4306 6.84115 12.7604 6.71094C13.0903 6.58073 13.3377 6.54167 13.5026 6.59375C13.7543 7.23611 13.776 7.82639 13.5677 8.36458C14.0278 8.86806 14.2578 9.46267 14.2578 10.1484C14.2578 10.6432 14.197 11.0794 14.0755 11.457C13.954 11.8346 13.7999 12.1385 13.6133 12.3685C13.4266 12.5985 13.1944 12.7917 12.9167 12.9479C12.6389 13.1042 12.3676 13.217 12.1029 13.2865C11.8381 13.3559 11.5408 13.408 11.2109 13.4427C11.5148 13.7118 11.6667 14.1241 11.6667 14.6797C11.6667 15.0269 11.6645 15.4132 11.6602 15.8385C11.6558 16.2639 11.6536 16.4852 11.6536 16.5026C11.6536 16.6068 11.6905 16.6936 11.7643 16.763C11.8381 16.8325 11.9531 16.8542 12.1094 16.8281C13.4462 16.3767 14.5399 15.5716 15.3906 14.4128C16.2413 13.2539 16.6667 11.9497 16.6667 10.5ZM20 4.25V16.75C20 17.783 19.6332 18.6662 18.8997 19.3997C18.1662 20.1332 17.283 20.5 16.25 20.5H3.75C2.71701 20.5 1.83377 20.1332 1.10026 19.3997C0.366753 18.6662 0 17.783 0 16.75V4.25C0 3.21701 0.366753 2.33377 1.10026 1.60026C1.83377 0.866753 2.71701 0.5 3.75 0.5H16.25C17.283 0.5 18.1662 0.866753 18.8997 1.60026C19.6332 2.33377 20 3.21701 20 4.25Z" fill="white"/>
  </g>
  <defs>
    <clipPath id="clip0_23_269">
      <rect width="20" height="20" fill="white" transform="translate(0 0.5)"/>
    </clipPath>
  </defs>
</svg>