<svg xmlns="http://www.w3.org/2000/svg" width="27" height="27" viewBox="0 0 27 27" fill="none">
  <path d="M22.5 20.25H20.25V10.4062L13.5 14.625L6.75 10.4062V20.25H4.5V6.75H5.85L13.5 11.5312L21.15 6.75H22.5M22.5 4.5H4.5C3.25125 4.5 2.25 5.50125 2.25 6.75V20.25C2.25 20.8467 2.48705 21.419 2.90901 21.841C3.33097 22.2629 3.90326 22.5 4.5 22.5H22.5C23.0967 22.5 23.669 22.2629 24.091 21.841C24.5129 21.419 24.75 20.8467 24.75 20.25V6.75C24.75 6.15326 24.5129 5.58097 24.091 5.15901C23.669 4.73705 23.0967 4.5 22.5 4.5Z" fill="white"/>
</svg>