<svg xmlns="http://www.w3.org/2000/svg" width="20" height="21" viewBox="0 0 20 21" fill="none">
  <g clip-path="url(#clip0_23_263)">
    <path d="M0 0.5V20.5H20V0.5H0ZM4.90478 4.43188C5.69695 4.4408 6.47728 4.9873 6.51123 5.93335C6.52817 6.7746 5.79505 7.41537 4.88403 7.43482H4.86207C4.07778 7.42577 3.31187 6.86555 3.27637 5.93335C3.28755 5.10147 3.98682 4.45162 4.90478 4.43188ZM13.4033 8.4065C14.2742 8.4119 15.0962 8.67027 15.7715 9.35867C16.4733 10.1413 16.6986 11.2205 16.7236 12.3176V17.3079H13.8477V12.657C13.8413 11.7853 13.5427 10.7257 12.3889 10.6904C11.7127 10.6976 11.2359 11.0906 10.9094 11.7476C10.8203 11.959 10.8075 12.2021 10.8032 12.4446V17.3079H7.92847C7.93947 14.8766 7.95458 12.4455 7.94922 10.0142C7.94922 9.32353 7.94257 8.8585 7.92847 8.6189H10.8032V9.84448C11.0472 9.49743 11.3179 9.1683 11.6809 8.90332C12.1733 8.5519 12.7648 8.41718 13.4033 8.4065ZM3.44605 8.6189H6.3208V17.3079H3.44605V8.6189Z" fill="white"/>
  </g>
  <defs>
    <clipPath id="clip0_23_263">
      <rect width="20" height="20" fill="white" transform="translate(0 0.5)"/>
    </clipPath>
  </defs>
</svg>