<svg xmlns="http://www.w3.org/2000/svg" width="33" height="34" viewBox="0 0 33 34" fill="none">
  <g clip-path="url(#clip0_8_246)">
    <path d="M0 1.70923V33.2892C0.00020886 33.3577 0.0203823 33.4246 0.0579907 33.4816C0.0955991 33.5385 0.148968 33.5829 0.211406 33.6093C0.273843 33.6356 0.34257 33.6427 0.408968 33.6297C0.475365 33.6166 0.536478 33.584 0.584643 33.5359L16.8174 17.5L0.584643 1.46253C0.536478 1.41443 0.475365 1.3818 0.408968 1.36874C0.34257 1.35568 0.273843 1.36277 0.211406 1.38911C0.148968 1.41546 0.0955991 1.45989 0.0579907 1.51684C0.0203823 1.57379 0.00020886 1.64071 0 1.70923ZM23.6237 10.9108L3.26988 -0.448333L3.25718 -0.455565C2.90656 -0.648419 2.57338 -0.16789 2.86055 0.111749L18.8157 15.5658L23.6237 10.9108ZM2.86213 34.8883C2.57338 35.1679 2.90656 35.6484 3.25877 35.4556L3.27146 35.4483L23.6237 24.0892L18.8157 19.4326L2.86213 34.8883ZM31.8404 15.4911L26.1566 12.3202L20.8123 17.5L26.1566 22.6773L31.8404 19.5089C33.3865 18.6435 33.3865 16.3565 31.8404 15.4911Z" fill="white"/>
  </g>
  <defs>
    <clipPath id="clip0_8_246">
      <rect width="33" height="33" fill="white" transform="translate(0 0.5)"/>
    </clipPath>
  </defs>
</svg>