<svg xmlns="http://www.w3.org/2000/svg" width="25" height="25" viewBox="0 0 25 25" fill="none">
  <path d="M12.5 16.5C14.171 16.5 15.5 15.169 15.5 13.5C15.5 11.831 14.171 10.5 12.5 10.5C10.829 10.5 9.5 11.831 9.5 13.5C9.5 15.169 10.829 16.5 12.5 16.5Z" fill="white"/>
  <path d="M21.317 11.686C21.0814 10.5344 20.6209 9.44048 19.962 8.467C19.3146 7.50928 18.4897 6.68442 17.532 6.037C16.5584 5.37833 15.4646 4.91789 14.313 4.682C13.7081 4.55933 13.0922 4.49901 12.475 4.502V2.5L8.5 5.5L12.475 8.5V6.502C12.959 6.5 13.443 6.546 13.91 6.642C14.805 6.82541 15.6552 7.18321 16.412 7.695C17.1584 8.19824 17.8008 8.84063 18.304 9.587C19.0853 10.7422 19.502 12.1054 19.5 13.5C19.4998 14.4359 19.3128 15.3623 18.95 16.225C18.7735 16.6405 18.5579 17.0383 18.306 17.413C18.0531 17.7854 17.7659 18.1332 17.448 18.452C16.48 19.4182 15.2511 20.0809 13.912 20.359C12.9807 20.547 12.0213 20.547 11.09 20.359C10.1946 20.1754 9.34404 19.8173 8.587 19.305C7.84148 18.8022 7.1998 18.1605 6.697 17.415C5.91656 16.2585 5.4997 14.8952 5.5 13.5H3.5C3.50106 15.2937 4.03689 17.0463 5.039 18.534C5.68685 19.4901 6.51086 20.3142 7.467 20.962C8.95262 21.9675 10.7061 22.5033 12.5 22.5C13.1093 22.4999 13.717 22.4386 14.314 22.317C15.4647 22.0794 16.5579 21.6191 17.532 20.962C18.0103 20.6397 18.456 20.2717 18.863 19.863C19.2705 19.4544 19.6388 19.0084 19.963 18.531C20.9676 17.0458 21.5031 15.2931 21.5 13.5C21.4999 12.8907 21.4386 12.283 21.317 11.686Z" fill="white"/>
</svg>