<svg xmlns="http://www.w3.org/2000/svg" width="24" height="25" viewBox="0 0 24 25" fill="none">
  <path d="M20 13.5V6.249C20.0001 6.17006 19.9845 6.09189 19.9543 6.01896C19.9241 5.94603 19.8798 5.87978 19.824 5.824L16.676 2.676C16.5636 2.56345 16.4111 2.50014 16.252 2.5H4.6C4.44087 2.5 4.28826 2.56321 4.17574 2.67574C4.06321 2.78826 4 2.94087 4 3.1V21.9C4 22.0591 4.06321 22.2117 4.17574 22.3243C4.28826 22.4368 4.44087 22.5 4.6 22.5H14" stroke="white" stroke-width="1.5" stroke-linecap="round" stroke-linejoin="round"/>
  <path d="M16 2.5V5.9C16 6.05913 16.0632 6.21174 16.1757 6.32426C16.2883 6.43679 16.4409 6.5 16.6 6.5H20M16 19.5H22M22 19.5L19 16.5M22 19.5L19 22.5" stroke="white" stroke-width="1.5" stroke-linecap="round" stroke-linejoin="round"/>
</svg>