<svg xmlns="http://www.w3.org/2000/svg" width="20" height="25" viewBox="0 0 20 25" fill="none">
  <path d="M2.85714 2.21875C1.28125 2.21875 0 3.53604 0 5.15625V19.8438C0 21.464 1.28125 22.7812 2.85714 22.7812H17.1429C18.7188 22.7812 20 21.464 20 19.8438V5.15625C20 3.53604 18.7188 2.21875 17.1429 2.21875H2.85714ZM16.1205 6.07422L11.4866 11.5178L16.9375 18.9258H12.6696L9.33036 14.4323L5.50446 18.9258H3.38393L8.33929 13.1013L3.11161 6.07422H7.48661L10.5089 10.1821L14 6.07422H16.1205ZM14.433 17.6223L6.84821 7.30889H5.58482L13.2545 17.6223H14.4286H14.433Z" fill="white"/>
</svg>
